<svg xmlns="http://www.w3.org/2000/svg" viewBox="0 0 780 545" font-family="'Segoe UI', system-ui, -apple-system, sans-serif">
  <defs>
    <linearGradient id="extGrad" x1="0" y1="0" x2="0" y2="1">
      <stop offset="0%" stop-color="#ef6c00"/>
      <stop offset="100%" stop-color="#e65100"/>
    </linearGradient>
    <linearGradient id="callerGrad" x1="0" y1="0" x2="0" y2="1">
      <stop offset="0%" stop-color="#5c6bc0"/>
      <stop offset="100%" stop-color="#3949ab"/>
    </linearGradient>
    <linearGradient id="kgatewayGrad" x1="0" y1="0" x2="0" y2="1">
      <stop offset="0%" stop-color="#7e57c2"/>
      <stop offset="100%" stop-color="#5e35b1"/>
    </linearGradient>
    <linearGradient id="kedaGrad" x1="0" y1="0" x2="0" y2="1">
      <stop offset="0%" stop-color="#26a69a"/>
      <stop offset="100%" stop-color="#00897b"/>
    </linearGradient>
    <linearGradient id="componentGrad" x1="0" y1="0" x2="0" y2="1">
      <stop offset="0%" stop-color="#42a5f5"/>
      <stop offset="100%" stop-color="#1e88e5"/>
    </linearGradient>
    <filter id="shadow" x="-2%" y="-2%" width="104%" height="108%">
      <feDropShadow dx="0" dy="2" stdDeviation="3" flood-opacity="0.12"/>
    </filter>
    <filter id="shadowSm" x="-2%" y="-2%" width="104%" height="108%">
      <feDropShadow dx="0" dy="1" stdDeviation="2" flood-opacity="0.1"/>
    </filter>
    <marker id="arrowHead" markerWidth="10" markerHeight="7" refX="9" refY="3.5" orient="auto">
      <path d="M0,0 L10,3.5 L0,7 Z" fill="#546e7a"/>
    </marker>
    <marker id="arrowHeadOrange" markerWidth="10" markerHeight="7" refX="9" refY="3.5" orient="auto">
      <path d="M0,0 L10,3.5 L0,7 Z" fill="#e65100"/>
    </marker>
    <marker id="arrowHeadIndigo" markerWidth="10" markerHeight="7" refX="9" refY="3.5" orient="auto">
      <path d="M0,0 L10,3.5 L0,7 Z" fill="#3949ab"/>
    </marker>
    <marker id="arrowHeadTeal" markerWidth="10" markerHeight="7" refX="9" refY="3.5" orient="auto">
      <path d="M0,0 L10,3.5 L0,7 Z" fill="#00897b"/>
    </marker>
  </defs>

  <!-- Background -->
  <rect width="780" height="545" rx="12" fill="#fafafa"/>

  <!-- Client (outside the cluster, top middle) -->
  <rect x="330" y="8" width="120" height="40" rx="8" fill="url(#extGrad)" filter="url(#shadow)"/>
  <g stroke="#fff" stroke-width="1.3" fill="none">
    <circle cx="368" cy="28" r="8"/>
    <ellipse cx="368" cy="28" rx="3.5" ry="8"/>
    <line x1="360" y1="28" x2="376" y2="28"/>
  </g>
  <text x="382" y="32" font-size="10" font-weight="600" fill="#fff">Client</text>

  <!-- Client -> kgateway (L-shaped, into the edge of the cluster) -->
  <path d="M450,28 L661,28 L661,66" stroke="#e65100" stroke-width="1.5" fill="none" marker-end="url(#arrowHeadOrange)"/>
  <circle cx="682" cy="47" r="9" fill="#263238"/>
  <text x="682" y="50.5" text-anchor="middle" font-size="9" font-weight="700" fill="#fff">1</text>

  <!-- ==================== DATA PLANE CLUSTER ==================== -->
  <rect x="30" y="88" width="720" height="432" rx="10" fill="#ffffff" stroke="#b0bec5" stroke-width="1.2"/>
  <text x="42" y="106" font-size="9" font-weight="600" fill="#546e7a" letter-spacing="1">DATA PLANE CLUSTER</text>

  <!-- kgateway, straddling the cluster boundary -->
  <rect x="601" y="70" width="120" height="44" rx="8" fill="url(#kgatewayGrad)" filter="url(#shadow)"/>
  <text x="661" y="97" text-anchor="middle" font-size="10" font-weight="600" fill="#fff">kgateway</text>

  <!-- kgateway -> Backend -->
  <line x1="661" y1="114" x2="661" y2="144" stroke="#e65100" stroke-width="1.5" marker-end="url(#arrowHeadOrange)"/>
  <text x="653" y="133" text-anchor="end" font-size="8" fill="#e65100">backendRef</text>

  <!-- Backend CRD -->
  <rect x="609" y="150" width="104" height="44" rx="5" fill="#fff" filter="url(#shadowSm)" stroke="#7e57c2" stroke-width="1"/>
  <text x="621" y="168" font-size="9" font-weight="600" fill="#5e35b1">Backend</text>
  <text x="621" y="183" font-size="8" fill="#546e7a">(kgateway CRD)</text>

  <!-- ==================== namespace: dp-acme-default-development ==================== -->
  <rect x="50" y="126" width="330" height="374" rx="8" fill="#ede7f6" filter="url(#shadowSm)" stroke="#b39ddb" stroke-width="1"/>
  <text x="62" y="144" font-size="9" font-weight="600" fill="#4527a0" letter-spacing="0.5">namespace: dp-acme-default-development</text>

  <!-- client pod -->
  <rect x="70" y="154" width="100" height="34" rx="8" fill="url(#callerGrad)" filter="url(#shadow)"/>
  <text x="120" y="176" text-anchor="middle" font-size="10" font-weight="600" fill="#fff">client pod</text>

  <!-- client pod -> greeter Service (direct) -->
  <line x1="120" y1="188" x2="120" y2="230" stroke="#3949ab" stroke-width="1.5" marker-end="url(#arrowHeadIndigo)"/>
  <circle cx="99" cy="209" r="9" fill="#263238"/>
  <text x="99" y="212.5" text-anchor="middle" font-size="9" font-weight="700" fill="#fff">1</text>
  <text x="132" y="212" font-size="8" fill="#3949ab" font-family="ui-monospace, Consolas, monospace">curl -v http://greeter:9090</text>

  <!-- greeter Service (ExternalName) -->
  <rect x="70" y="236" width="286" height="44" rx="6" fill="#fff" filter="url(#shadowSm)" stroke="#26a69a" stroke-width="1"/>
  <text x="82" y="254" font-size="9" font-weight="600" fill="#00897b">greeter.dp-acme-default-development.svc.cluster.local</text>
  <text x="82" y="269" font-size="8" fill="#546e7a">(Service &#x00B7; ExternalName)</text>

  <!-- greeter-keda-upstream -->
  <rect x="70" y="340" width="130" height="44" rx="6" fill="#fff" filter="url(#shadowSm)" stroke="#26a69a" stroke-width="1"/>
  <text x="82" y="358" font-size="9" font-weight="600" fill="#00897b">greeter-keda-upstream</text>
  <text x="82" y="373" font-size="8" fill="#546e7a">(Service &#x00B7; ClusterIP)</text>

  <!-- greeter pod -->
  <rect x="70" y="434" width="160" height="48" rx="8" fill="url(#componentGrad)" filter="url(#shadow)"/>
  <text x="150" y="454" text-anchor="middle" font-size="10" font-weight="600" fill="#fff">greeter pod</text>
  <text x="150" y="469" text-anchor="middle" font-size="8" fill="#e3f2fd">(Deployment &#x00B7; replicas 0 &#x2192; 1)</text>

  <!-- upstream -> pod -->
  <line x1="135" y1="384" x2="135" y2="428" stroke="#546e7a" stroke-width="1.5" marker-end="url(#arrowHead)"/>

  <!-- ==================== namespace: keda ==================== -->
  <rect x="400" y="204" width="340" height="196" rx="8" fill="#e0f2f1" filter="url(#shadowSm)" stroke="#80cbc4" stroke-width="1"/>
  <text x="412" y="222" font-size="9" font-weight="600" fill="#00695c" letter-spacing="1">namespace: keda</text>

  <!-- multiport Service -->
  <rect x="420" y="236" width="160" height="44" rx="5" fill="#fff" filter="url(#shadowSm)" stroke="#26a69a" stroke-width="1"/>
  <text x="432" y="254" font-size="9" font-weight="600" fill="#00897b">interceptor-multiport</text>
  <text x="432" y="269" font-size="8" fill="#546e7a">(Service &#x00B7; 80, 3000, &#x2026; &#x2192; 8080)</text>

  <!-- proxy Service -->
  <rect x="590" y="236" width="144" height="44" rx="5" fill="#fff" filter="url(#shadowSm)" stroke="#26a69a" stroke-width="1"/>
  <text x="602" y="254" font-size="9" font-weight="600" fill="#00897b">interceptor-proxy</text>
  <text x="602" y="269" font-size="8" fill="#546e7a">(Service &#x00B7; ClusterIP :8080)</text>

  <!-- Backend -> proxy Service -->
  <line x1="661" y1="194" x2="661" y2="230" stroke="#e65100" stroke-width="1.5" marker-end="url(#arrowHeadOrange)"/>
  <circle cx="684" cy="212" r="9" fill="#263238"/>
  <text x="684" y="215.5" text-anchor="middle" font-size="9" font-weight="700" fill="#fff">2</text>
  <text x="653" y="215" text-anchor="end" font-size="8" fill="#e65100">static host</text>

  <!-- DNS CNAME hop across the namespace boundary -->
  <line x1="356" y1="258" x2="414" y2="258" stroke="#3949ab" stroke-width="1.5" stroke-dasharray="4,3" marker-end="url(#arrowHeadIndigo)"/>
  <circle cx="385" cy="240" r="9" fill="#263238"/>
  <text x="385" y="243.5" text-anchor="middle" font-size="9" font-weight="700" fill="#fff">2</text>
  <text x="385" y="276" text-anchor="middle" font-size="8" fill="#3949ab">DNS</text>

  <!-- Interceptor -->
  <rect x="420" y="336" width="300" height="52" rx="8" fill="url(#kedaGrad)" filter="url(#shadow)"/>
  <text x="570" y="357" text-anchor="middle" font-size="11" font-weight="600" fill="#fff">KEDA HTTP Interceptor</text>
  <text x="570" y="372" text-anchor="middle" font-size="8" fill="#b2dfdb">holds the request until the pod is ready</text>

  <!-- multiport -> interceptor -->
  <line x1="500" y1="280" x2="500" y2="330" stroke="#3949ab" stroke-width="1.5" marker-end="url(#arrowHeadIndigo)"/>
  <!-- proxy -> interceptor -->
  <line x1="661" y1="280" x2="661" y2="330" stroke="#e65100" stroke-width="1.5" marker-end="url(#arrowHeadOrange)"/>

  <!-- Forward path: interceptor -> upstream -->
  <line x1="420" y1="362" x2="206" y2="362" stroke="#546e7a" stroke-width="1.5" marker-end="url(#arrowHead)"/>
  <circle cx="310" cy="362" r="9" fill="#263238"/>
  <text x="310" y="365.5" text-anchor="middle" font-size="9" font-weight="700" fill="#fff">4</text>

  <!-- Scale path: interceptor -> pod -->
  <path d="M570,388 L570,458 L236,458" stroke="#00897b" stroke-width="1.2" fill="none" stroke-dasharray="4,3" marker-end="url(#arrowHeadTeal)"/>
  <circle cx="570" cy="425" r="9" fill="#00897b"/>
  <text x="570" y="428.5" text-anchor="middle" font-size="9" font-weight="700" fill="#fff">3</text>
  <text x="584" y="428" font-size="8" fill="#00897b">scale 0 &#x2192; 1</text>
</svg>
